# xmcd
#
# Track frame offsets:
#	183
#	13505
#	27078
#	45128
#	54443
#	70505
#	85743
#	100850
#	119195
#	138710
#	149675
#	168265
#	180158
#	197478
#
# Disc length: 2838 seconds
#
# Revision: 5
# Processed by: cddbd v1.5.2PL0 Copyright (c) Steve Scherf et al.
# Submitted via: audiograbber 1.83.01
#
DISCID=b20b140e
DTITLE=Various Artist - Raw Blues
DYEAR=1967
DGENRE=Blues
TTITLE0=Otis Spann - Pretty Girls Everywhere
TTITLE1=John Mayall - Burn Out Your Blind Eyes
TTITLE2=Champion Jack Dupree - Calcutta Blues
TTITLE3=John Mayall and Steve Anglo - Long Night
TTITLE4=Otis Spann - Country Boy
TTITLE5=Curtis Jones - You Got Good Business
TTITLE6=John Mayall and Eric Clapton - Lonely Years
TTITLE7=Peter Green and John Mayall - Evil Woman Blues
TTITLE8=Otis Spann - My Home In The Desert
TTITLE9=John Mayall - Milkman Strut
TTITLE10=Champion Jack Dupree - 24 Hours
TTITLE11=Curtis Jones - Roll Me Over
TTITLE12=John Mayall and Eric Clapton - Bernard Jenkins
TTITLE13=Otis Spann - You Gonna Need My Help
EXTD=
EXTT0=
EXTT1=
EXTT2=
EXTT3=
EXTT4=
EXTT5=
EXTT6=
EXTT7=
EXTT8=
EXTT9=
EXTT10=
EXTT11=
EXTT12=
EXTT13=
PLAYORDER=
